<svg width="31" height="32" viewBox="0 0 31 32" fill="none" xmlns="http://www.w3.org/2000/svg">
<path d="M0.477051 9.363L4.24705 4.161L12.1021 9.155V0H18.5961V9.467L26.8701 4.16L30.6401 9.362L20.7951 15.916L30.5351 22.574L26.7651 27.776L18.5951 21.95V31.937H12.1021V22.054L4.14205 27.464L0.477051 22.262L10.2171 15.812L0.477051 9.363Z" fill="#352F7B"/>
<path d="M0.477051 9.363L4.24705 4.161L12.1021 9.155V0H18.5961V9.467L26.8701 4.16L30.6401 9.362L20.7951 15.916L30.5351 22.574L26.7651 27.776L18.5951 21.95V31.937H12.1021V22.054L4.14205 27.464L0.477051 22.262L10.2171 15.812L0.477051 9.363Z" fill="#352F7B"/>
<path d="M0.477051 9.363L4.24705 4.161L12.1021 9.155V0H18.5961V9.467L26.8701 4.16L30.6401 9.362L20.7951 15.916L30.5351 22.574L26.7651 27.776L18.5951 21.95V31.937H12.1021V22.054L4.14205 27.464L0.477051 22.262L10.2171 15.812L0.477051 9.363Z" fill="#352F7B"/>
<path d="M0.477051 9.363L4.24705 4.161L12.1021 9.155V0H18.5961V9.467L26.8701 4.16L30.6401 9.362L20.7951 15.916L30.5351 22.574L26.7651 27.776L18.5951 21.95V31.937H12.1021V22.054L4.14205 27.464L0.477051 22.262L10.2171 15.812L0.477051 9.363Z" fill="#352F7B"/>
<path d="M0 21.7153L26.553 3.69531L30.563 9.60531L4.011 27.6253L0 21.7153Z" fill="#6155DF"/>
</svg>
